<?xml version="1.0" encoding="UTF-8"?>
<svg id="Layer_1" data-name="Layer 1" xmlns="http://www.w3.org/2000/svg" viewBox="0 0 72 115.99">
  <defs>
    <style>
      .cls-1 {
        fill: #fff;
      }

      .cls-2 {
        fill: #fb7e08;
      }
    </style>
  </defs>
  <g>
    <path class="cls-1" d="M-.07-9v104.19l1.53.88,32.92,19.03,1.53.88,1.53-.88,32.98-19.03,1.53-.88V-9H-.07Z"/>
    <polygon class="cls-2" points="35.9 112.47 2.99 93.43 2.99 -9 68.88 -9 68.88 93.43 35.9 112.47"/>
    <g>
      <path class="cls-1" d="M49.17,73.98c5.02,4.1,8.68,8.41,10.4,12.18v-24.36c-1.73,3.78-5.38,8.08-10.4,12.18Z"/>
      <path class="cls-1" d="M37.29,100.39l21.1-12.18c-4.13.39-9.69-.62-15.75-2.92-1.04,6.4-2.94,11.72-5.35,15.1Z"/>
      <path class="cls-1" d="M23.06,73.98c-5.02-4.1-8.68-8.41-10.4-12.18v24.36c1.73-3.78,5.38-8.08,10.4-12.18Z"/>
      <path class="cls-1" d="M29.58,85.29c-6.06,2.3-11.62,3.31-15.75,2.92l21.1,12.18c-2.41-3.38-4.31-8.7-5.35-15.1Z"/>
      <path class="cls-1" d="M42.64,62.68c6.06-2.29,11.62-3.31,15.75-2.92l-21.1-12.18c2.41,3.38,4.31,8.7,5.35,15.1Z"/>
      <path class="cls-1" d="M34.93,47.57l-21.1,12.18c4.13-.39,9.69.62,15.75,2.92,1.04-6.4,2.94-11.72,5.35-15.1Z"/>
    </g>
  </g>
  <g>
    <path class="cls-1" d="M16.13,16.9c.15-.02.29-.04.42-.04.14,0,.29.01.43.04v2.08c-.2.08-.42.12-.64.15-.22.03-.42.04-.58.04-.46,0-.85-.09-1.15-.28-.31-.19-.54-.45-.69-.78-.15-.33-.23-.7-.23-1.12s.08-.8.24-1.13c.16-.33.39-.59.69-.79.3-.19.66-.29,1.09-.29.19,0,.36.01.53.04.16.02.33.07.51.15,0,.12-.03.23-.07.35-.04.11-.08.22-.13.34-.14-.05-.26-.08-.37-.1-.11-.02-.23-.03-.38-.03-.38,0-.67.12-.87.37s-.3.61-.3,1.09c0,.96.4,1.44,1.19,1.44.07,0,.13,0,.18-.01s.1-.02.14-.02v-1.49Z"/>
    <path class="cls-1" d="M18.84,14.85c.08-.01.16-.02.24-.03s.16,0,.25,0c.08,0,.16,0,.23,0,.07,0,.16.01.25.03l1.33,4.24c-.16.02-.31.04-.47.04s-.29-.01-.44-.04l-.24-.85h-1.4l-.24.85c-.14.02-.28.04-.41.04-.15,0-.29-.01-.43-.04l1.34-4.24ZM19.3,15.75l-.51,1.78h1l-.49-1.78Z"/>
    <path class="cls-1" d="M23.91,16.9c.15-.02.29-.04.42-.04.14,0,.29.01.43.04v2.08c-.2.08-.42.12-.64.15-.22.03-.42.04-.58.04-.46,0-.85-.09-1.15-.28-.31-.19-.54-.45-.69-.78-.15-.33-.23-.7-.23-1.12s.08-.8.24-1.13c.16-.33.39-.59.69-.79.3-.19.66-.29,1.09-.29.19,0,.36.01.53.04.16.02.33.07.51.15,0,.12-.03.23-.07.35-.04.11-.08.22-.13.34-.14-.05-.26-.08-.37-.1-.11-.02-.23-.03-.38-.03-.38,0-.67.12-.87.37s-.3.61-.3,1.09c0,.96.4,1.44,1.19,1.44.07,0,.13,0,.18-.01s.1-.02.14-.02v-1.49Z"/>
    <path class="cls-1" d="M25.64,14.85c.13-.02.24-.04.35-.04.12,0,.24.01.37.04l1.64,2.7v-2.7c.14-.02.28-.04.41-.04s.24.01.35.04v4.24c-.12.02-.24.04-.34.04s-.23-.01-.36-.04l-1.65-2.7v2.7c-.12.02-.25.04-.38.04-.13,0-.25-.01-.38-.04v-4.24Z"/>
    <path class="cls-1" d="M30.69,14.85c.08-.01.16-.02.24-.03s.16,0,.25,0c.08,0,.16,0,.23,0,.07,0,.16.01.25.03l1.33,4.24c-.16.02-.31.04-.47.04s-.29-.01-.44-.04l-.24-.85h-1.4l-.24.85c-.14.02-.28.04-.41.04-.15,0-.29-.01-.43-.04l1.34-4.24ZM31.14,15.75l-.51,1.78h1l-.49-1.78Z"/>
    <path class="cls-1" d="M33.58,14.85c.13-.02.24-.04.35-.04.12,0,.24.01.37.04l1.64,2.7v-2.7c.14-.02.28-.04.41-.04s.24.01.35.04v4.24c-.12.02-.24.04-.34.04s-.23-.01-.36-.04l-1.65-2.7v2.7c-.12.02-.25.04-.38.04-.13,0-.25-.01-.38-.04v-4.24Z"/>
    <path class="cls-1" d="M38.46,15.58h-1.06c-.02-.12-.04-.24-.04-.37,0-.12.01-.24.04-.36h2.98c.02.12.04.24.04.36,0,.13-.01.25-.04.37h-1.06v3.51c-.07,0-.14.02-.21.02-.07,0-.14.01-.21.01-.14,0-.29-.01-.45-.04v-3.51Z"/>
  </g>
  <path class="cls-1" d="M15.63,35.97s.1-.01.15-.02c.05,0,.1,0,.15,0s.1,0,.15,0c.05,0,.1,0,.14.02v2.07c-.08.04-.17.07-.27.09-.1.03-.2.04-.31.06-.11.01-.21.02-.32.03-.11,0-.21.01-.3.01-.31,0-.6-.05-.85-.15-.25-.1-.46-.24-.64-.43-.17-.19-.3-.41-.4-.68-.09-.27-.14-.57-.14-.91s.05-.64.14-.92c.09-.27.23-.51.4-.7.17-.19.38-.34.62-.45.24-.1.51-.16.81-.16.22,0,.42.01.58.04.17.03.32.07.45.12,0,.09-.03.17-.05.25-.03.08-.06.16-.09.24-.11-.04-.23-.07-.36-.09-.13-.03-.29-.04-.48-.04-.21,0-.4.04-.57.11s-.32.18-.44.33c-.12.14-.21.32-.28.53-.07.21-.1.45-.1.72s.03.52.1.72c.07.2.17.37.29.51.13.14.28.24.45.3.17.06.36.1.57.1.13,0,.24,0,.33-.02s.17-.03.24-.05v-1.66Z"/>
  <path class="cls-1" d="M17.56,33.91c.09,0,.17-.02.24-.02s.14-.01.21-.02c.07,0,.14-.01.22-.01.07,0,.16,0,.25,0,.2,0,.4.02.6.06.2.04.37.11.53.21.15.1.28.23.38.4.1.17.14.38.14.63,0,.15-.03.29-.08.42-.05.13-.12.24-.2.34-.08.1-.17.18-.27.26-.1.07-.2.13-.29.18l-.07.04,1.23,1.79c-.11.01-.23.02-.36.02-.11,0-.21,0-.32-.02l-1.36-1.97v-.02h.05c.11-.04.22-.08.34-.12.12-.05.23-.11.33-.19.1-.08.18-.17.25-.28.07-.11.1-.24.1-.39,0-.28-.08-.49-.25-.63-.17-.14-.39-.21-.68-.21-.07,0-.13,0-.19,0-.06,0-.12,0-.19.02v3.78s-.09,0-.15.01c-.05,0-.1,0-.15,0s-.1,0-.15,0c-.06,0-.11,0-.15-.01v-4.25Z"/>
  <path class="cls-1" d="M23.52,37.18h-1.61l-.29.98c-.05,0-.1.01-.15.02-.05,0-.1,0-.15,0-.05,0-.11,0-.16,0-.05,0-.1-.01-.14-.02l1.38-4.25c.05,0,.11-.01.17-.02s.12,0,.18,0c.06,0,.11,0,.17,0,.06,0,.12,0,.17.02l1.38,4.25s-.1.01-.16.02c-.06,0-.12,0-.17,0-.05,0-.1,0-.16,0-.05,0-.1-.01-.15-.02l-.29-.98ZM22.06,36.66h1.29l-.65-2.17-.64,2.17Z"/>
  <path class="cls-1" d="M25.42,33.92s.09-.01.14-.02.1,0,.14,0,.09,0,.14,0c.05,0,.1,0,.14.02l1.85,3.19v-3.19s.1-.01.15-.02.1,0,.15,0c.04,0,.09,0,.14,0,.05,0,.09,0,.14.02v4.25s-.09.01-.14.02c-.05,0-.1,0-.14,0s-.09,0-.14,0c-.05,0-.09-.01-.14-.02l-1.85-3.17v3.17s-.09.01-.14.02c-.05,0-.1,0-.14,0-.05,0-.1,0-.15,0-.05,0-.09-.01-.13-.02v-4.25Z"/>
  <path class="cls-1" d="M29.8,33.92c.13-.02.3-.03.48-.04.19-.01.37-.02.55-.02.74,0,1.3.19,1.67.57.37.38.55.92.55,1.63s-.19,1.29-.56,1.65c-.38.36-.94.54-1.68.54-.19,0-.37,0-.55-.02-.18-.01-.34-.03-.47-.05v-4.25ZM30.4,37.67c.06,0,.12.01.2.02.08,0,.17,0,.26,0,.23,0,.44-.03.63-.08s.36-.14.49-.27c.14-.13.24-.3.32-.51.07-.21.11-.48.11-.81,0-.3-.04-.55-.11-.76-.08-.21-.18-.38-.32-.51-.14-.13-.3-.23-.49-.29s-.4-.09-.63-.09c-.07,0-.16,0-.24,0-.09,0-.17,0-.23.02v3.25Z"/>
  <path class="cls-1" d="M36.03,33.91c.06,0,.13-.02.21-.02.08,0,.16-.01.25-.02.09,0,.18-.01.27-.01.09,0,.17,0,.26,0,.22,0,.42.02.62.06.19.04.37.12.51.22.15.11.26.25.35.42.09.18.13.39.13.66s-.05.5-.14.69c-.09.18-.21.33-.37.44-.15.11-.32.19-.52.23-.19.05-.39.07-.59.07-.08,0-.14,0-.2,0-.06,0-.12,0-.19-.02v1.54c-.09.01-.19.02-.3.02-.05,0-.1,0-.15,0-.05,0-.1,0-.15-.01v-4.25ZM36.63,36.1c.06,0,.12.01.17.02.05,0,.12,0,.21,0,.12,0,.24-.01.36-.04.12-.03.23-.07.32-.14.09-.07.17-.16.23-.27.06-.12.09-.27.09-.45,0-.16-.02-.3-.07-.41-.05-.11-.12-.2-.2-.27-.09-.07-.19-.11-.31-.14-.12-.03-.25-.04-.4-.04s-.27,0-.38.02v1.72Z"/>
  <path class="cls-1" d="M39.68,33.92c.09-.01.2-.02.31-.02s.2,0,.29.02v2.41c0,.24.02.45.05.63.03.17.08.31.15.42.07.11.16.19.28.24.12.05.26.08.43.08s.31-.03.42-.08c.11-.05.21-.13.28-.24.07-.11.12-.25.15-.42.03-.17.05-.38.05-.63v-2.41c.1-.01.2-.02.3-.02.11,0,.21,0,.31.02v2.52c0,.28-.03.54-.08.76-.05.22-.14.41-.26.57-.12.15-.28.27-.47.35-.19.08-.43.12-.7.12s-.51-.04-.7-.12c-.19-.08-.35-.2-.47-.35-.12-.15-.21-.34-.26-.57-.05-.22-.08-.48-.08-.76v-2.52Z"/>
  <path class="cls-1" d="M44.06,33.92c.1-.02.24-.04.41-.05.18-.01.36-.02.54-.02.22,0,.43.02.61.06.18.04.34.1.48.19.13.09.23.2.31.34.07.14.11.31.11.51,0,.12-.02.24-.06.34-.04.1-.09.2-.15.28-.06.08-.14.15-.22.2-.08.05-.17.09-.25.12.11.01.22.04.33.09.11.05.21.11.3.2.09.09.16.2.22.33.06.13.09.29.09.48,0,.23-.05.42-.14.58-.09.16-.21.29-.37.39-.16.1-.34.17-.55.21-.21.04-.44.06-.68.06-.15,0-.31,0-.49-.02-.18-.01-.34-.03-.5-.05v-4.25ZM45.09,35.69c.27,0,.47-.06.61-.17.14-.12.21-.29.21-.52s-.08-.39-.23-.5c-.15-.11-.36-.16-.62-.16-.08,0-.16,0-.23,0-.07,0-.13,0-.19.02v1.34h.43ZM44.66,37.7c.06,0,.12.01.21.02.09,0,.17,0,.25,0,.14,0,.27-.01.4-.04.12-.02.23-.06.33-.12.09-.06.17-.13.22-.23.06-.1.08-.22.08-.37s-.03-.27-.08-.37c-.05-.1-.12-.18-.21-.24-.09-.06-.19-.1-.32-.13-.12-.03-.25-.04-.4-.04h-.5v1.51Z"/>
  <path class="cls-1" d="M47.92,33.92s.09-.01.14-.02c.05,0,.1,0,.16,0,.05,0,.1,0,.15,0,.05,0,.1,0,.15.02v3.71h1.66s.01.09.02.14c0,.05,0,.09,0,.13,0,.09,0,.18-.02.27h-2.26v-4.25Z"/>
  <path class="cls-1" d="M51.2,33.92s.1-.01.15-.02c.05,0,.1,0,.15,0s.1,0,.15,0c.05,0,.1,0,.15.02v4.25s-.1.01-.14.02c-.05,0-.1,0-.16,0-.05,0-.1,0-.16,0-.05,0-.1-.01-.14-.02v-4.25Z"/>
  <path class="cls-1" d="M55.91,37.54c.09.17.14.33.17.49-.17.07-.33.12-.51.15-.17.03-.36.05-.56.05-.31,0-.58-.05-.83-.15s-.45-.24-.62-.43c-.17-.19-.3-.41-.39-.68-.09-.27-.14-.57-.14-.9s.05-.64.14-.92c.09-.27.22-.51.39-.7.17-.19.38-.34.62-.45.24-.1.52-.16.82-.16.22,0,.42.02.58.05.16.03.3.07.43.11,0,.09-.03.17-.05.25-.03.08-.06.16-.09.24-.06-.02-.12-.04-.17-.05-.05-.02-.11-.03-.18-.04-.06-.01-.13-.02-.21-.03-.08,0-.16,0-.26,0-.43,0-.76.15-1,.44-.24.29-.36.71-.36,1.26,0,.28.03.52.1.73.07.2.16.37.28.51.12.13.27.23.44.3.17.07.36.1.58.1.17,0,.32-.01.45-.04.13-.03.26-.07.38-.12Z"/>
  <g>
    <path class="cls-1" d="M13.44,23.87c.26-.04.5-.06.72-.06.24,0,.49.02.74.06v6.08h2.54c.02.12.03.23.04.33s.01.21.01.3c0,.11,0,.22-.01.32s-.02.22-.04.33h-4.01v-7.37Z"/>
    <path class="cls-1" d="M17.06,23.87c.29-.04.57-.06.86-.06.27,0,.52.02.77.06l1.45,3.34,1.43-3.34c.26-.04.52-.06.77-.06s.51.02.79.06l-2.28,4.74v2.64c-.14.02-.27.03-.39.04-.12,0-.24.01-.37.01-.12,0-.24,0-.36-.01-.13,0-.25-.02-.38-.04v-2.64l-2.28-4.74Z"/>
    <path class="cls-1" d="M24.34,24.3c.46-.37,1.06-.55,1.81-.55.35,0,.67.03.97.09.3.06.62.15.95.27-.04.39-.15.78-.33,1.17-.21-.09-.43-.16-.65-.23-.22-.06-.53-.09-.91-.09-.15,0-.3.02-.46.06-.16.04-.29.11-.39.23s-.15.29-.15.52c0,.18.04.33.12.44.08.11.19.19.32.26.13.06.27.12.4.18l.61.24c.35.14.65.29.9.45.26.16.45.37.59.64.14.26.21.62.21,1.07s-.11.86-.33,1.22c-.22.36-.54.63-.96.83-.42.2-.94.3-1.54.3-.29,0-.55-.01-.77-.04s-.44-.06-.64-.12c-.2-.06-.42-.13-.65-.22.02-.2.06-.4.11-.62.05-.22.12-.43.19-.65.29.12.55.2.81.26.25.06.52.09.81.09.43,0,.76-.08,1.01-.24.25-.16.37-.41.37-.73,0-.22-.05-.39-.14-.52s-.22-.23-.37-.3-.31-.14-.47-.21l-.62-.24c-.31-.12-.57-.25-.79-.41-.22-.15-.4-.35-.52-.59-.12-.24-.18-.56-.18-.94,0-.7.23-1.23.68-1.59Z"/>
    <path class="cls-1" d="M31.83,25.62c.31-.98,1.2-1.66,2.25-1.66,1.22,0,2.28.92,2.28,2.21,0,.87-.44,1.51-.92,2.06l-1.52,1.77h2.49v1.23h-4.64v-.82l2.51-2.86c.55-.63.7-1.04.7-1.4,0-.5-.39-.96-.93-.96-.48,0-.83.33-.97.81l-1.26-.38Z"/>
    <path class="cls-1" d="M40.34,23.96c1.83,0,2.5,1.65,2.5,3.69s-.67,3.69-2.5,3.69-2.5-1.65-2.5-3.69.67-3.69,2.5-3.69ZM40.34,25.19c-.83,0-1.12,1.11-1.12,2.46s.3,2.46,1.12,2.46,1.12-1.11,1.12-2.46-.3-2.46-1.12-2.46Z"/>
    <path class="cls-1" d="M44.03,25.62c.31-.98,1.2-1.66,2.25-1.66,1.22,0,2.28.92,2.28,2.21,0,.87-.44,1.51-.92,2.06l-1.52,1.77h2.49v1.23h-4.64v-.82l2.51-2.86c.55-.63.7-1.04.7-1.4,0-.5-.39-.96-.93-.96-.48,0-.83.33-.97.81l-1.26-.38Z"/>
    <path class="cls-1" d="M50.84,29.54c.31.33.74.57,1.22.57.32,0,.62-.11.86-.33.25-.23.4-.55.4-.92,0-.39-.16-.74-.44-.97-.22-.19-.53-.29-.87-.29s-.74.13-1.05.39l-.86-.12.46-3.8h3.77v1.23h-2.65l-.11,1.13c.14-.03.36-.05.55-.05.55,0,1.16.13,1.66.54.56.45.91,1.18.91,1.95,0,1.42-1.19,2.48-2.63,2.48-.83,0-1.54-.3-2.16-.92l.94-.88Z"/>
  </g>
</svg>