<?xml version="1.0" encoding="UTF-8"?>
<svg id="Layer_1" xmlns="http://www.w3.org/2000/svg" version="1.1" viewBox="0 0 72 115.99">
  <!-- Generator: Adobe Illustrator 29.8.3, SVG Export Plug-In . SVG Version: 2.1.1 Build 3)  -->
  <defs>
    <style>
      .st0 {
        fill: #fff;
      }

      .st1 {
        fill: #da1922;
      }
    </style>
  </defs>
  <g>
    <g>
      <g>
        <path class="st0" d="M0-9v104.2l1.53.88,32.92,19.03,1.53.88,1.53-.88,32.98-19.03,1.53-.88V-9H0Z"/>
        <polygon class="st1" points="35.97 112.47 3.05 93.43 3.05 -9 68.95 -9 68.95 93.43 35.97 112.47"/>
      </g>
      <g>
        <path class="st0" d="M49.23,73.98c5.02,4.1,8.68,8.41,10.4,12.18v-24.36c-1.73,3.78-5.38,8.08-10.4,12.18Z"/>
        <path class="st0" d="M37.36,100.39l21.1-12.18c-4.13.39-9.69-.62-15.75-2.92-1.04,6.4-2.94,11.72-5.35,15.1Z"/>
        <path class="st0" d="M23.12,73.98c-5.02-4.1-8.68-8.41-10.4-12.18v24.36c1.73-3.78,5.38-8.08,10.4-12.18Z"/>
        <path class="st0" d="M29.65,85.29c-6.06,2.3-11.62,3.31-15.75,2.92l21.1,12.18c-2.41-3.38-4.3-8.7-5.35-15.1Z"/>
        <path class="st0" d="M42.71,62.68c6.06-2.3,11.62-3.31,15.75-2.92l-21.1-12.18c2.41,3.38,4.3,8.7,5.35,15.1Z"/>
        <path class="st0" d="M35,47.57l-21.1,12.18c4.13-.39,9.69.62,15.75,2.92,1.04-6.4,2.94-11.72,5.35-15.1Z"/>
      </g>
    </g>
    <g>
      <path class="st0" d="M16.13,16.9c.15-.02.29-.04.42-.04s.28.01.43.04v2.08c-.2.08-.42.12-.64.15-.22.03-.42.04-.58.04-.35,0-.65-.05-.91-.16-.26-.11-.48-.26-.65-.45-.17-.2-.3-.43-.39-.69-.09-.27-.13-.56-.13-.87s.04-.61.14-.88c.09-.27.22-.5.39-.7.17-.2.38-.35.63-.46s.53-.17.85-.17c.19,0,.36.01.53.04.16.02.33.07.51.15,0,.12-.03.23-.07.35-.04.11-.08.22-.13.34-.14-.05-.26-.08-.37-.1-.11-.02-.23-.03-.38-.03-.38,0-.67.12-.87.37-.2.25-.3.61-.3,1.09s.1.85.3,1.08c.2.24.5.36.88.36.07,0,.13,0,.18-.01.05,0,.1-.02.14-.02v-1.49Z"/>
      <path class="st0" d="M18.84,14.85c.08-.01.16-.02.24-.03.07,0,.16,0,.25,0,.08,0,.16,0,.23,0,.07,0,.16.01.25.03l1.33,4.24c-.16.02-.32.04-.47.04s-.29-.01-.44-.04l-.24-.85h-1.41l-.24.85c-.14.02-.28.04-.41.04-.15,0-.29-.01-.43-.04l1.34-4.24ZM19.79,17.53l-.49-1.78-.51,1.78h1Z"/>
      <path class="st0" d="M23.91,16.9c.15-.02.29-.04.42-.04s.28.01.43.04v2.08c-.2.08-.42.12-.64.15-.22.03-.42.04-.58.04-.35,0-.65-.05-.91-.16-.26-.11-.48-.26-.65-.45-.17-.2-.3-.43-.39-.69-.09-.27-.13-.56-.13-.87s.04-.61.14-.88c.09-.27.22-.5.39-.7.17-.2.38-.35.63-.46s.53-.17.85-.17c.19,0,.36.01.53.04.16.02.33.07.51.15,0,.12-.03.23-.07.35-.04.11-.08.22-.13.34-.14-.05-.26-.08-.37-.1-.11-.02-.23-.03-.38-.03-.38,0-.67.12-.87.37-.2.25-.3.61-.3,1.09s.1.85.3,1.08c.2.24.5.36.88.36.07,0,.13,0,.18-.01.05,0,.1-.02.14-.02v-1.49Z"/>
      <path class="st0" d="M25.64,14.85c.12-.02.24-.04.35-.04.12,0,.24.01.37.04l1.64,2.7v-2.7c.14-.02.28-.04.41-.04.12,0,.24.01.35.04v4.24c-.13.02-.24.04-.34.04-.11,0-.23-.01-.36-.04l-1.65-2.7v2.7c-.13.02-.25.04-.38.04s-.26-.01-.38-.04v-4.24Z"/>
      <path class="st0" d="M30.69,14.85c.08-.01.16-.02.24-.03.08,0,.16,0,.25,0,.08,0,.16,0,.23,0s.16.01.25.03l1.33,4.24c-.16.02-.32.04-.47.04s-.29-.01-.44-.04l-.24-.85h-1.4l-.24.85c-.14.02-.28.04-.41.04-.15,0-.29-.01-.43-.04l1.34-4.24ZM31.63,17.53l-.49-1.78-.51,1.78h1Z"/>
      <path class="st0" d="M33.58,14.85c.12-.02.24-.04.35-.04.12,0,.24.01.37.04l1.64,2.7v-2.7c.14-.02.28-.04.41-.04.12,0,.24.01.35.04v4.24c-.13.02-.24.04-.34.04-.11,0-.23-.01-.36-.04l-1.65-2.7v2.7c-.13.02-.25.04-.38.04s-.26-.01-.38-.04v-4.24Z"/>
      <path class="st0" d="M38.46,15.58h-1.06c-.02-.12-.04-.24-.04-.37,0-.12.01-.24.04-.36h2.98c.02.12.04.24.04.36,0,.13-.01.25-.04.37h-1.06v3.51c-.07,0-.14.01-.21.02-.07,0-.14,0-.21,0s-.14,0-.21,0c-.08,0-.15-.01-.23-.02v-3.51Z"/>
    </g>
  </g>
  <g>
    <path class="st0" d="M13.44,23.92c.25-.04.49-.06.72-.06s.48.02.74.06v6.03h2.53c.02.12.03.23.04.33,0,.11.01.21.01.3,0,.11,0,.22-.01.32,0,.1-.02.22-.04.33h-4v-7.32Z"/>
    <path class="st0" d="M19.21,28.62l-2.28-4.7c.29-.04.57-.06.86-.06.26,0,.52.02.77.06l1.45,3.32,1.42-3.32c.25-.04.51-.06.77-.06.24,0,.51.02.78.06l-2.28,4.7v2.63c-.13.02-.26.03-.39.04-.12,0-.24.01-.37.01s-.24,0-.36-.01c-.13,0-.25-.02-.38-.04v-2.63Z"/>
    <path class="st0" d="M25.13,27.85c-.23-.09-.44-.19-.62-.29-.18-.11-.34-.23-.47-.38-.13-.15-.23-.32-.3-.52-.07-.2-.11-.45-.11-.73,0-.35.06-.65.18-.92.12-.26.29-.49.5-.67.22-.18.48-.32.78-.41.3-.09.65-.14,1.03-.14.35,0,.67.03.97.09.3.06.62.15.95.26-.04.39-.15.78-.33,1.16-.1-.04-.21-.08-.31-.12-.1-.04-.22-.07-.33-.1-.12-.03-.25-.05-.4-.07s-.32-.03-.51-.03c-.12,0-.23.01-.35.03-.12.02-.22.06-.32.11-.09.05-.17.13-.23.24-.06.11-.09.24-.09.41,0,.14.02.25.07.34.05.09.11.17.19.23.08.06.17.12.27.16.1.04.2.09.31.13l.61.23c.26.1.49.21.7.32.21.11.39.24.53.4.15.16.26.35.34.58.08.23.12.51.12.84s-.06.66-.19.95c-.12.28-.31.53-.54.73s-.53.36-.88.48-.75.17-1.21.17c-.22,0-.42,0-.6-.02-.18-.01-.34-.04-.5-.07-.16-.03-.32-.07-.47-.12-.16-.05-.32-.1-.49-.17.02-.2.06-.4.11-.62s.12-.43.19-.65c.29.12.55.2.8.26s.52.09.8.09c.43,0,.76-.08,1.01-.24.24-.16.37-.4.37-.73,0-.16-.03-.3-.09-.41-.06-.11-.13-.2-.22-.27-.09-.07-.2-.14-.31-.19s-.23-.1-.36-.15l-.62-.23Z"/>
    <path class="st0" d="M31.79,25.55c.31-1,1.22-1.68,2.29-1.68,1.25,0,2.32.93,2.32,2.24,0,.88-.45,1.52-.93,2.09l-1.55,1.79h2.53v1.25h-4.72v-.83l2.55-2.9c.56-.63.72-1.05.72-1.42,0-.51-.39-.98-.95-.98-.49,0-.84.33-.99.82l-1.29-.38Z"/>
    <path class="st0" d="M40.25,23.87c1.86,0,2.54,1.67,2.54,3.74s-.68,3.74-2.54,3.74-2.54-1.67-2.54-3.74.69-3.74,2.54-3.74ZM40.25,25.12c-.84,0-1.14,1.12-1.14,2.49s.3,2.49,1.14,2.49,1.14-1.12,1.14-2.49-.3-2.49-1.14-2.49Z"/>
    <path class="st0" d="M43.88,25.55c.31-1,1.22-1.68,2.29-1.68,1.25,0,2.32.93,2.32,2.24,0,.88-.45,1.52-.93,2.09l-1.54,1.79h2.53v1.25h-4.72v-.83l2.55-2.9c.56-.63.72-1.05.72-1.42,0-.51-.39-.98-.94-.98-.49,0-.84.33-.99.82l-1.29-.38Z"/>
    <path class="st0" d="M53.5,23.98l-1.37,2.31h.09c1.38,0,2.54,1.05,2.54,2.5s-1.17,2.55-2.58,2.55-2.66-.97-2.66-2.48c0-.72.33-1.36.72-2l1.71-2.88h1.55ZM50.88,28.86c0,.68.58,1.23,1.29,1.23s1.22-.57,1.22-1.27-.52-1.3-1.3-1.3c-.26,0-.51.05-.78.18-.2.27-.44.66-.44,1.15Z"/>
    <path class="st0" d="M13.24,33.92s.1-.01.15-.02.1,0,.15,0,.1,0,.15,0c.05,0,.1,0,.15.02v4.24s-.1.01-.14.02-.1,0-.16,0c-.05,0-.1,0-.16,0s-.1,0-.14-.02v-4.24Z"/>
    <path class="st0" d="M15.24,33.92s.09-.01.14-.02.09,0,.14,0,.09,0,.14,0,.09,0,.14.02l1.85,3.19v-3.19s.1-.01.15-.02.1,0,.15,0c.04,0,.09,0,.14,0s.09,0,.14.02v4.24s-.09.01-.14.02-.09,0-.14,0-.09,0-.14,0-.09,0-.14-.02l-1.85-3.17v3.17s-.09.01-.14.02-.1,0-.14,0c-.05,0-.1,0-.15,0-.05,0-.09,0-.13-.02v-4.24Z"/>
    <path class="st0" d="M19.61,33.92s.1-.01.15-.02c.05,0,.1,0,.15,0s.1,0,.15,0c.05,0,.1,0,.15.02v4.24s-.1.01-.14.02-.1,0-.16,0c-.05,0-.1,0-.16,0-.05,0-.1,0-.14-.02v-4.24Z"/>
    <path class="st0" d="M22.33,34.44h-1.1s-.01-.08-.02-.13c0-.05,0-.09,0-.14s0-.09,0-.13c0-.04,0-.09.02-.13h2.81s.01.08.02.12c0,.04,0,.09,0,.13s0,.09,0,.14c0,.05-.01.09-.02.13h-1.1v3.72c-.09.01-.19.02-.29.02s-.21,0-.31-.02v-3.72Z"/>
    <path class="st0" d="M25.06,33.92s.1-.01.15-.02c.05,0,.1,0,.15,0s.1,0,.15,0,.1,0,.15.02v4.24s-.1.01-.14.02c-.05,0-.1,0-.16,0-.05,0-.1,0-.16,0-.05,0-.1,0-.14-.02v-4.24Z"/>
    <path class="st0" d="M27.05,33.92h2.33c.01.08.02.17.02.26,0,.04,0,.09,0,.14,0,.05,0,.09-.01.13h-1.73v1.22h1.38s.01.08.02.13c0,.05,0,.09,0,.13s0,.09,0,.14c0,.05,0,.09-.02.13h-1.38v1.45h1.78c.01.08.02.17.02.26,0,.04,0,.09,0,.14s0,.09-.01.13h-2.38v-4.24ZM28.31,33.56c-.05,0-.1.01-.16.02-.06,0-.11,0-.17,0s-.11,0-.15,0c-.05,0-.1,0-.15-.02l.62-.64c.06,0,.13-.02.2-.02s.14,0,.21,0c.07,0,.15,0,.21,0,.07,0,.13.01.18.02l-.8.64Z"/>
  </g>
</svg>